<?xml version="1.0" encoding="utf-8"?>
<!-- Generated by IcoMoon.io -->
<!DOCTYPE svg PUBLIC "-//W3C//DTD SVG 1.1//EN" "http://www.w3.org/Graphics/SVG/1.1/DTD/svg11.dtd">
<svg version="1.1" xmlns="http://www.w3.org/2000/svg" xmlns:xlink="http://www.w3.org/1999/xlink" width="544" height="512" viewBox="0 0 544 512">
<!--    <g id="icomoon-ignore">
</g> -->
<g stroke="none" stroke-width="1" fill="none" fill-rule="evenodd">
        <g>
            <rect fill="#333" x="0" y="0" width="544" height="512" rx="113"></rect>
            <g transform="translate(6.000000, 6.000000)" fill="#181818">
    
    <path d="M388.069 123.931v286.151h-231.121c-18.237 0-33.019-14.782-33.019-33.019s14.782-33.019 33.019-33.019h209.109v-264.14h-220.115c-24.215 0-44.025 19.809-44.025 44.025v264.14c0 24.214 19.811 44.024 44.025 44.024h264.14v-308.162h-22.012z"></path>
<path d="M156.968 366.058v0c-0.007 0.002-0.014 0-0.020 0-6.078 0-11.006 4.926-11.006 11.006s4.928 11.006 11.006 11.006c0.007 0 0.014-0.002 0.020-0.002v0.002h209.072v-22.012h-209.072z"></path>

</g></g></g>
</svg>
