<?xml version="1.0" encoding="utf-8"?>
<!-- Generated by IcoMoon.io -->
<!DOCTYPE svg PUBLIC "-//W3C//DTD SVG 1.1//EN" "http://www.w3.org/Graphics/SVG/1.1/DTD/svg11.dtd">
<svg version="1.1" xmlns="http://www.w3.org/2000/svg" xmlns:xlink="http://www.w3.org/1999/xlink" width="544" height="512" viewBox="0 0 544 512">
<!--    <g id="icomoon-ignore">
</g> -->
<g stroke="none" stroke-width="1" fill="none" fill-rule="evenodd">
        <g>
            <rect fill="#333" x="0" y="0" width="544" height="512" rx="113"></rect>
            <g transform="translate(6.000000, 6.000000)" fill="#181818">
    
    <path d="M436.954 409.957v-21.994h-21.994v-131.962h21.994v-21.994h-65.983v21.994h21.994v131.962h-65.983v-131.962h21.994v-21.994h-65.983v21.994h21.994v131.962h-65.983v-131.962h21.994v-21.994h-65.983v21.994h21.994v131.962h-65.982v-131.962h21.994v-21.994h-65.983v21.994h21.994v131.962h-21.994v21.994h-21.994v21.994h373.895v-21.994h-21.994z"></path>
<path d="M261.002 80.049h21.994l175.951 109.97v21.994h-373.895v-21.994l175.951-109.97z"></path>

</g></g></g>
</svg>
