<?xml version="1.0" encoding="utf-8"?>
<!-- Generated by IcoMoon.io -->
<!DOCTYPE svg PUBLIC "-//W3C//DTD SVG 1.1//EN" "http://www.w3.org/Graphics/SVG/1.1/DTD/svg11.dtd">
<svg version="1.1" xmlns="http://www.w3.org/2000/svg" xmlns:xlink="http://www.w3.org/1999/xlink" width="544" height="512" viewBox="0 0 544 512">
<!--    <g id="icomoon-ignore">
</g> -->
<g stroke="none" stroke-width="1" fill="none" fill-rule="evenodd">
        <g>
            <rect fill="#333" x="0" y="0" width="544" height="512" rx="113"></rect>
            <g transform="translate(6.000000, 6.000000)" fill="#181818">
    
    <path d="M144.237 223.931q-1.428-3.392-1.428-9.283 0-3.57 1.964-8.748t4.285-8.033q-0.178-3.928 1.34-9.463t4.017-7.677q0-24.816 16.514-51.506t38.832-37.403q24.816-11.784 57.845-11.784 23.745 0 47.49 9.82 8.748 3.749 16.068 8.57t12.676 9.998 9.82 12.14 7.499 13.212 5.803 15.086 4.553 15.979 3.928 17.497l0.178 0.893q9.82 14.818 9.82 26.779 0 2.499-1.606 7.141t-1.607 6.784q0 0.178 0.268 0.625t0.625 0.893 0.357 0.625q13.747 20.353 21.513 38.295t7.766 37.224q0 7.677-3.482 17.853t-9.909 10.176q-1.606 0-3.482-1.34t-3.392-3.124-3.392-4.641-2.857-4.732-2.411-4.641-1.606-3.124q-0.178-0.178-0.536-0.178l-0.893 0.715q-10.534 27.494-23.566 39.813 3.57 3.57 10.98 6.874t12.319 7.409 6.338 11.605q-0.357 0.715-0.715 2.857t-1.249 3.214q-11.426 17.318-53.917 17.318-9.463 0-19.728-1.607t-17.496-3.57-18.657-5.356q-2.678-0.893-4.107-1.249-2.499-0.715-8.212-0.803t-7.141-0.268q-7.321 8.033-22.763 11.605t-30.083 3.57q-6.249 0-12.319-0.268t-16.604-1.606-18.032-3.66-13.301-7.141-5.803-11.426q0-7.141 1.786-10.622t7.321-8.658q1.964-0.357 7.231-2.321t8.838-2.142q0.715 0 2.499-0.357 0.357-0.357 0.357-0.715l-0.357-0.536q-8.57-1.964-19.282-18.836t-13.033-27.941l-0.893-0.536q-0.715 0-2.142 3.57-3.214 7.321-9.73 13.301t-13.836 6.696h-0.178q-0.715 0-1.071-0.803t-0.893-0.981q-4.107-9.641-4.107-17.853 0-49.098 44.991-83.197z"></path>

</g></g></g>
</svg>
